<?xml version="1.0" encoding="UTF-8"?>
<svg id="Layer_1" data-name="Layer 1" xmlns="http://www.w3.org/2000/svg" viewBox="0 0 206.37 8.45">
  <defs>
    <style>
      .cls-1 {
        fill: #e0dfdd;
        stroke-width: 0px;
      }
    </style>
  </defs>
  <path class="cls-1" d="m205.92,5.79c-.65.64-1.49.86-2.34,1.07-4.73,1.17-9.56.89-14.35,1.01-5.23.13-10.46-.34-15.69-.56-1.46-.06-2.92.04-4.38.08-4.48.11-8.93-.46-13.38-.82-3.26-.26-6.49-.12-9.74-.08-4.05.05-8.11.01-12.16.16-2.89.11-5.78.45-8.67.7-.32.03-.64.14-.96.15-5.77.14-11.51.97-17.28.71-1.7-.07-3.32.32-4.99.21-1.77-.11-3.57,0-5.31-.26-1.13-.17-2.17.02-3.24.03-3.24.05-6.49-.1-9.73-.31-1.97-.13-4.01-.07-5.95-.31-3.22-.4-6.49.46-9.65-.62-.41-.14-.84,0-1.26.13-.8.27-1.64.56-2.37-.2h0c-.73.5-1.46.73-2.24.12-.12-.1-.35-.25-.42-.2-1.96,1.22-4.14-.74-6.05.43-.72.45-1.06-.24-1.44-.38-1.61-.57-3.26,0-4.9-.52-1.09-.34-2.55-.11-3.79.04-1.52.18-3.07.17-4.48-.11-.92-.18-1.76.27-2.63-.12-2.44-1.09-5.18-.29-7.63-1.29-1.41,1.1-2.65-.6-3.88-.31-2.12.5-4.15-.23-6.24-.08-1.24.09-2.5.52-3.76.1-.44-.15-1.23-.06-1.17-.65.08-.76.9-1.05,1.53-1.33.57-.26.94,0,.9.71l-.05.07.05-.06s.1.04.15.07c1.14.77,1.56-1.88,2.31-.78.79,1.18,1.64.65,2.49.81,1,.19,1.75-1,2.88-.46,2.76,1.32,5.78.17,8.64.84.78.18,1.69.14,2.55-.11.62-.18,1.4-.2,1.82.27.9,1.01,1.32,1.19,3.24.75.1-.02.21,0,.32,0,.33,1.34,1.15-.08,1.65.31h-.02s0-.01,0-.01c0,0,0,0,.01-.01,0,0,0,0,0,.01,1.39.34,2.67.38,2.94-1.55.09-.62.29-.81.8-.53.42.22.8.51,1.18.75-.14.61-.71.51-1.06.87.13.1.23.21.35.29.65.43,1.37.23,2.06.18.66-.05,1.31-.4,1.92.27.19.21.77.26,1.05-.06.34-.39-.28-.66-.19-1.47,1.2,1.5,2.73.65,4.08,1.1.49.17,1.2.26,1.46-.54.42.23.91.38,1,.98.26-.07.52-.2.78-.18,1.31.09,1.17-.57.7-1.42-.3-.05-.65-.03-.74-.43-.02-.1.1-.32.2-.36.46-.18.66.12.76.53.66.26,1.73.06,1.46,1.39.75-.09,1.68.6,2.04.38.65-.39,1.96.1,1.99-1.58.02-1.05.94-.3,1.46,0,.05.06.1.13.15.19.18.26-.5,1.01.48.83.66-.12,1.4-.25,1.8.65.16.34.57.34.82.03.38-.45-.06-.54-.33-.69-.41-.25-1.04-.43-.91-1.03.18-.85.91-.29,1.38-.35,1.1-.15,2.23-.42,3.09.75.16.21.72.64.98-.16.35-1.07.93-1.08,1.87-.56,1.02.57,2.4.18,3.34,1.16.08.08.41.04.42,0,.4-1.52,1.53-.77,2.24-.64,3.44.66,6.92-.46,10.35.39.7.17,1.47-.11,2.18-.17,1.45-.12,2.17,1.7,3.63,1.24.04-.01.24.25.22.35-.03.14-.19.25-.31.36-.3.26-.71-.46-1.12.4,2.19-.06,4.23-.11,6.31-.16-.22-.48-.74-.56-1.32-.55-.81.01-1.62.02-2.43,0-.61-.01-.88-.46-.87-1,.01-.53.51-.49.87-.5,1.18-.03,2.37-.17,3.53.24.17-.17.33-.22.42.08-.07.04-.14.07-.21.09l.12.02.09-.1c2.92-.79,5.91-.26,8.86-.47,3.2-.24,6.4-.84,9.57-.94,4.18-.13,8.36-.95,12.57-.25,1.02.17,2.12-.32,3.19-.33,4.92-.04,9.85-.01,14.77,0,2.83,0,5.65.91,8.4.86,3.45-.07,6.89.18,10.34.07,5.48-.18,11.01.67,16.47.35,4.39-.26,8.84.65,13.17-.51,1.65-.44,2.31,1.1,3.48,1.59.47.2.02.7-.24.95Zm-132.31-1.02c-.1-.01-.19-.02-.29-.03-.05,0-.1.02-.14.02.06.03.12.08.17.08.09,0,.17-.05.26-.07Zm2.99.68c-.08-.08-.18-.25-.28-.25-.13,0-.29.12-.38.23-.11.14-.05.3.14.33.2.02.41,0,.51-.31Zm3.92.1c-.41-.31-.75-.72-1.27-.37-.06.04-.05.34.03.44.42.62.8.13,1.24-.08Zm1.9-.21c-.12-.04-.23-.11-.35-.1-.05,0-.1.15-.15.22.09.03.17.06.26.09.08-.07.16-.14.23-.21Zm2.02-.69c.06.05.12.1.17.15.02-.04.07-.1.07-.11-.05-.06-.11-.1-.17-.15-.02.04-.05.07-.07.11Zm1.42,1.01c-.2-.03-.4-.05-.59-.08-1.08-.19-1.65.08-1.26.38.64.5,1.24-.12,1.85-.3Zm4.35.08c-.74.02-1.18.03-1.63.04.45.28.93.51,1.63-.04Zm5.32-.79s.1,0,.14,0c.04-.01.08-.04.12-.06-.04-.01-.09-.03-.13-.04-.04.04-.09.07-.13.11Zm1.68.86c-1.61.04-2.94.08-4.25.11,1.3.05,2.69,1.1,4.25-.11Zm10,.19l-.03-.08-.11.05.13.03Zm4.24-.15c-.88.02-1.76.04-2.87.07,1.12,1.13,1.92.1,2.87-.07Zm3.48-.2c-.43.06-.86.12-1.29.19.45.24.89.65,1.29-.19Zm2.51-.2c-.22.07-.45.14-.67.21.24.24.49.08.67-.21Zm2.77-.14s-.02-.08-.03-.12c-.25.09-.5.18-.75.27.26-.05.52-.1.79-.15Zm2.34-.18s-.07-.05-.11-.07c-.01.04-.04.09-.03.12.01.03.07.04.11.06.01-.04.04-.09.03-.11Zm10.64-.66c-.02-.07-.07-.14-.1-.2-.06.06-.12.11-.18.17.06.04.13.1.2.13.02,0,.09-.07.09-.09Zm4.61-.08c-.05-.25-.3-.25-.51-.24-.23.02-.44.11-.41.38.03.24.21.37.46.36.3-.02.52-.15.46-.49Zm4.37,0c-.72-.42-1.48-.41-2.2.06.73-.02,1.47-.04,2.2-.06Zm7.4-.5c-.67-.03-1.1-.18-1.47.28.43.03.89.26,1.47-.28Z"/>
  <path class="cls-1" d="m58.87,4.32s0,0,0,0c0-.01,0-.02.01-.03l-.02.03Z"/>
  <polygon class="cls-1" points="105.35 4.48 105.34 4.49 105.34 4.49 105.35 4.48"/>
  <polygon class="cls-1" points="42.65 4.72 42.65 4.73 42.65 4.73 42.65 4.72"/>
  <path class="cls-1" d="m10.45,3.17c.07-.18.13-.35.2-.53-.04,0-.09-.02-.13-.03l-.07.55c-.42.09-.48-.69-1.06-.38-1.49.79-2.98-.03-4.47-.15-.07.13-.13.25-.2.38,0-.05-.02-.11,0-.14.06-.09.13-.17.2-.25-.33-.64-.99-.68-1.5-.65-.66.05-1.3.45-2,.14-.06-.06-.12-.11-.17-.17-1.03.05-1.57.97-1.03,1.54.56.59,1.38,1.42,2.43,1.26,2.26-.35,4.52-.4,6.82-.35,1.3.03,2.76.08,4.23-.41-.99-1.19-2.3-.2-3.24-.83Z"/>
  <path class="cls-1" d="m22.42,1.8c-.09-.36-.63-.9-.1-1.18.47-.24,1.13-.26,1.41.49.26-.16.5-.57.81-.28.35.33-.01.57-.23.8-.18.19-.35.55-.53.56-.48.02-1.17.35-1.36-.4Zm1.01-.33c.09-.11.18-.21.27-.32-.1.09-.39,0-.27.32Z"/>
  <path class="cls-1" d="m9.24.81c-1.28-.34-2.64-.25-4.13-.81,1.23,2.45,2.8.59,4.13.81Z"/>
  <path class="cls-1" d="m58.87,4.32l.02-.03s-.03,0-.04,0c0,0,.02.01.02.02Z"/>
  <path class="cls-1" d="m55.26,4.09c1.26.67,2.44.32,3.59.21-1.05-1.07-2.15-1.58-3.59-.21Z"/>
  <path class="cls-1" d="m30.45,2.43c-1.07-.63-1.16-.64-2.36-.25.8.56,1.49,1.05,2.36.25Z"/>
  <path class="cls-1" d="m17,1.12c-.06-.09-.13-.18-.19-.27-.49-.42-.87-.27-1.11.28-.14.31.08.53.36.59.48.11.98.2.95-.6Z"/>
  <path class="cls-1" d="m33.45,2.66s-.07-.33-.18-.4c-.65-.42-1.21-.29-1.69.32.64-.03,1.25.65,1.87.08Z"/>
  <path class="cls-1" d="m65.26,4c.08.09.15.17.23.26.36-.29.72-.58,1.08-.87-.52.06-1.75-1.29-1.31.61Z"/>
  <path class="cls-1" d="m69.15,3.93c.35.18.77.35.88-.16.12-.55-.44-.49-.75-.59-.39-.13-.53.23-.74.46.05.06.1.13.15.19.15.03.32.04.45.11Z"/>
  <path class="cls-1" d="m27.71,2.26c-.75-.32-1.21-.6-1.74-.4-.07.03-.14.38-.09.42.48.36.99.24,1.83-.02Z"/>
  <path class="cls-1" d="m14.85,3.65c-.23,0-.47.09-.38.37.1.35.38.54.74.57.36,0,.28-.26.23-.47-.07-.32-.28-.47-.58-.47Z"/>
  <path class="cls-1" d="m17.9.82c.06-.23-.01-.48-.23-.54-.46-.14-.61.31-.86.57.06.09.13.18.19.27.33-.01.76.32.9-.29Z"/>
  <path class="cls-1" d="m99.74,4.82c.07-.05.09-.33.02-.43-.31-.53-.67-.35-1.15.09.37.31.68.65,1.13.34Z"/>
  <path class="cls-1" d="m42.22,2.45c-.07-.09-.35-.13-.42-.06-.4.39.05.66.17.97.34-.23.6-.49.25-.91Z"/>
  <path class="cls-1" d="m41.98,3.39s0-.01,0-.02c0,0,0,0,0,0l.02.02Z"/>
  <path class="cls-1" d="m3.3,1.05c.21-.07.34-.24.32-.48-.02-.21-.04-.43-.32-.43-.29.08-.45.28-.41.58.02.22.16.41.42.33Z"/>
  <path class="cls-1" d="m10.77,1.71c.09,0,.18-.17.33-.33-.17-.1-.29-.23-.39-.22-.1.02-.25.21-.23.28.03.11.18.26.29.26Z"/>
  <path class="cls-1" d="m42.82,3.78c.38.12.55-.21.77-.43.11.11.23.23.34.34h.01c-.11-.13-.23-.24-.34-.35,0,0,0,0,0,0,0,0,0,0,0,0,0,0-.01.01-.01.01-.29-.22-.58-.28-.85.03-.13.15-.1.34.08.4Z"/>
  <path class="cls-1" d="m38.31,2.44c.12-.01.21-.18.37-.32-.14-.13-.24-.3-.34-.3-.12,0-.3.12-.34.23-.08.24.06.43.31.39Z"/>
  <path class="cls-1" d="m19.43,1.68c.06-.07.12-.13.17-.2-.17-.27-.34-.54-.51-.8-.1.1-.27.18-.29.29-.09.5.17.71.62.71Z"/>
  <path class="cls-1" d="m55.38,3.31c-.06-.15-.1-.32-.13-.32-.12.01-.24.08-.37.12.03.09.06.25.1.26.12.01.25-.03.4-.06Z"/>
  <path class="cls-1" d="m51.32,4.4s.16-.06.48-.21c-.25-.11-.38-.2-.53-.23-.07-.01-.16.08-.24.13.09.11.17.24.28.31Z"/>
  <path class="cls-1" d="m75.54,3.41c.06,0,.12-.14.18-.22-.05-.08-.1-.23-.15-.23-.08,0-.23.06-.25.14-.05.18.03.33.23.32Z"/>
  <path class="cls-1" d="m11.94,1.64c.03-.1.07-.2.13-.36-.14-.04-.26-.09-.38-.09-.04,0-.12.23-.09.26.1.09.23.13.35.19Z"/>
  <path class="cls-1" d="m22.21,2.8c-.06-.15-.11-.32-.13-.32-.13.01-.26.07-.39.12.03.09.06.25.1.25.13.01.27-.03.42-.06Z"/>
  <path class="cls-1" d="m40.69,2.49c-.18-.15-.28-.26-.4-.3-.05-.02-.23.12-.22.14.04.13.1.3.2.35.07.04.22-.09.42-.19Z"/>
  <path class="cls-1" d="m13.6.39c-.35,0-.32.32-.37.57.07.07.14.14.21.21.23-.1.49-.21.45-.54-.01-.1-.19-.24-.29-.24Z"/>
  <path class="cls-1" d="m21.51.67c-.08-.06-.15-.18-.23-.18-.07,0-.15.12-.22.19.08.06.15.18.23.18.07,0,.15-.12.22-.19Z"/>
  <path class="cls-1" d="m5.24,1.18c-.09-.05-.17-.1-.26-.14-.03.1-.1.22-.07.3.02.07.15.1.24.14.03-.1.06-.2.09-.3Z"/>
  <path class="cls-1" d="m43.17,4.65c-.19-.19-.36-.07-.51.07.17.06.34.12.52.19,0-.09.04-.22,0-.26Z"/>
  <polygon class="cls-1" points="42.65 4.72 42.65 4.73 42.65 4.72 42.65 4.72"/>
  <path class="cls-1" d="m44.48,4.5s-.11-.05-.13-.03c-.22.16-.09.36-.05.54.16-.13.3-.27.18-.52Z"/>
  <path class="cls-1" d="m52.67,3.84c-.09-.03-.19-.12-.25-.09-.06.03-.08.17-.12.26.09.03.19.11.26.09.06-.02.07-.17.1-.26Z"/>
  <path class="cls-1" d="m27.5,1.08s-.04-.08-.07-.13c-.07.06-.13.11-.19.17,0,0,.04.07.07.11.06-.05.13-.1.19-.16Z"/>
  <path class="cls-1" d="m45.49,2.74c-.14-.05-.26-.12-.38-.12-.04,0-.09.14-.14.22.11.06.22.14.34.18.03,0,.1-.14.18-.27Z"/>
  <path class="cls-1" d="m51.2,7.11s.09.01.12,0c.01,0,0-.06.01-.1-.04,0-.09-.01-.13,0-.01,0,0,.06-.01.1Z"/>
  <path class="cls-1" d="m26.3,1.14c-.06-.06-.11-.13-.17-.19-.04.04-.11.08-.1.11.02.09.06.17.1.25.06-.05.11-.11.17-.17Z"/>
  <path class="cls-1" d="m.92,1.31c.09-.02.17-.07.25-.1-.03-.04-.07-.12-.09-.12-.09.02-.17.07-.25.11.03.04.07.12.09.11Z"/>
  <path class="cls-1" d="m65.48,4.26c-.08-.09-.15-.17-.23-.26-.15.1-.43.16-.25.4.15.19.35.03.47-.14Z"/>
  <polygon class="cls-1" points="44.22 2.76 44.1 2.81 44.21 2.88 44.22 2.76"/>
  <path class="cls-1" d="m59.43,3.28s-.05-.09-.07-.13c-.03.04-.08.08-.08.12,0,.04.04.09.07.13.03-.04.06-.08.09-.12Z"/>
  <path class="cls-1" d="m58.51,3.09s-.08-.02-.12-.04c0,.04-.04.09-.02.11.02.03.07.03.11.04,0-.04.02-.07.03-.11Z"/>
  <path class="cls-1" d="m41.98,3.71s0,0-.01,0c0,0,0,.01,0,.02h.01Z"/>
  <path class="cls-1" d="m41.98,3.39s-.02-.02-.02-.02c0,.01,0,.02,0,.03,0,0,.01-.01.02-.01Z"/>
  <path class="cls-1" d="m41.97,3.71c0-.1,0-.2,0-.31-.08.07-.16.14-.24.21.08.03.16.06.25.1Z"/>
  <path class="cls-1" d="m44.73,3.91s.09-.06.09-.09c0-.03-.05-.07-.08-.1-.03.03-.09.06-.09.09,0,.03.05.07.08.1Z"/>
  <polygon class="cls-1" points="105.35 4.48 105.34 4.48 105.34 4.49 105.35 4.48"/>
  <path class="cls-1" d="m13.44,1.17c-.07-.07-.14-.14-.21-.21-.12.28-.02.32.21.21Z"/>
  <path class="cls-1" d="m1.24,1.95c.06.06.12.11.17.17.04-.16-.02-.22-.17-.17Z"/>
  <path class="cls-1" d="m19.6,1.48c-.06.07-.12.13-.17.2.21.08.26,0,.17-.2Z"/>
</svg>